<svg width="24" height="23" viewBox="0 0 24 23" fill="none" xmlns="http://www.w3.org/2000/svg">
<path d="M14.72 8.36352L10.43 12.4023L8.78 10.8525C8.69035 10.7542 8.58003 10.6744 8.45597 10.618C8.3319 10.5616 8.19677 10.5299 8.05905 10.5249C7.92133 10.5199 7.784 10.5417 7.65567 10.5889C7.52735 10.6362 7.4108 10.7078 7.31335 10.7993C7.21589 10.8909 7.13963 11.0003 7.08936 11.1209C7.03908 11.2414 7.01588 11.3704 7.0212 11.4997C7.02652 11.6291 7.06025 11.756 7.12027 11.8725C7.18029 11.9891 7.26532 12.0927 7.37 12.1769L9.72 14.3935C9.81344 14.4806 9.92425 14.5494 10.0461 14.5962C10.1679 14.6429 10.2984 14.6666 10.43 14.6659C10.6923 14.6649 10.9437 14.567 11.13 14.3935L16.13 9.69725C16.2237 9.60994 16.2981 9.50606 16.3489 9.3916C16.3997 9.27714 16.4258 9.15438 16.4258 9.03039C16.4258 8.90639 16.3997 8.78363 16.3489 8.66917C16.2981 8.55471 16.2237 8.45083 16.13 8.36352C15.9426 8.18858 15.6892 8.09039 15.425 8.09039C15.1608 8.09039 14.9074 8.18858 14.72 8.36352ZM12 1.98599C10.0222 1.98599 8.08879 2.53685 6.44429 3.56892C4.7998 4.60098 3.51808 6.06789 2.7612 7.78415C2.00433 9.50041 1.80629 11.3889 2.19214 13.2109C2.578 15.0329 3.5304 16.7065 4.92893 18.02C6.32745 19.3336 8.10928 20.2282 10.0491 20.5906C11.9889 20.953 13.9996 20.767 15.8268 20.0561C17.6541 19.3452 19.2159 18.1413 20.3147 16.5967C21.4135 15.0521 22 13.2362 22 11.3785C22 10.1451 21.7413 8.92371 21.2388 7.78415C20.7362 6.6446 19.9996 5.60918 19.0711 4.737C18.1425 3.86482 17.0401 3.17297 15.8268 2.70096C14.6136 2.22894 13.3132 1.98599 12 1.98599ZM12 18.8925C10.4177 18.8925 8.87103 18.4518 7.55543 17.6262C6.23984 16.8005 5.21446 15.627 4.60896 14.254C4.00346 12.881 3.84503 11.3702 4.15371 9.9126C4.4624 8.45503 5.22432 7.11616 6.34314 6.0653C7.46196 5.01445 8.88743 4.29881 10.4393 4.00888C11.9911 3.71895 13.5997 3.86775 15.0615 4.43647C16.5233 5.00519 17.7727 5.96828 18.6518 7.20395C19.5308 8.43962 20 9.89238 20 11.3785C20 13.3714 19.1571 15.2826 17.6569 16.6917C16.1566 18.1009 14.1217 18.8925 12 18.8925Z" fill="#98F520"/>
</svg>
