<svg width="13" height="10" viewBox="0 0 13 10" fill="none" xmlns="http://www.w3.org/2000/svg">
<path d="M5.2803 1.28028C5.5732 0.987375 5.5732 0.512575 5.2803 0.219675C4.9874 -0.073225 4.5126 -0.073225 4.2197 0.219675L0.2197 4.21968C0.0731999 4.36608 0 4.55808 0 4.74998C0 4.85168 0.0202 4.94868 0.0569 5.03708C0.0935 5.12548 0.1478 5.20838 0.2197 5.28028L4.2197 9.28028C4.5126 9.57318 4.9874 9.57318 5.2803 9.28028C5.5732 8.98738 5.5732 8.51258 5.2803 8.21968L2.5607 5.49998H12.25C12.6642 5.49998 13 5.16418 13 4.74998C13 4.33578 12.6642 3.99998 12.25 3.99998H2.5607L5.2803 1.28028Z" fill="black"/>
</svg>
