<svg width="21" height="25" viewBox="0 0 21 25" fill="none" xmlns="http://www.w3.org/2000/svg">
<path d="M21 18.103C19.687 18.103 19.535 16.603 17.508 16.603C15.481 16.603 15.313 18.103 14 18.103C12.687 18.103 12.526 16.603 10.5 16.603C8.492 16.603 8.287 18.103 7.008 18.103C5.689 18.103 5.545 16.603 3.508 16.603C1.471 16.603 1.317 18.103 0 18.103V14.353C0.000265004 13.7564 0.237403 13.1842 0.659302 12.7623C1.0812 12.3404 1.65334 12.1033 2.25 12.103H3V5.35303H6V12.103H9V5.35303H12V12.103H15V5.35303H18V12.103H18.75C19.3467 12.1033 19.9188 12.3404 20.3407 12.7623C20.7626 13.1842 20.9997 13.7564 21 14.353V18.103ZM21 24.103H0V19.603C2.032 19.603 2.192 18.103 3.5 18.103C4.808 18.103 4.965 19.603 7 19.603C9.016 19.603 9.221 18.103 10.5 18.103C11.819 18.103 11.963 19.603 14 19.603C16.037 19.603 16.2 18.103 17.508 18.103C18.8 18.103 18.973 19.603 21 19.603V24.103ZM4.5 4.60303C4.10218 4.60303 3.72064 4.44499 3.43934 4.16369C3.15804 3.88238 3 3.50085 3 3.10303C3 1.65003 4.5 2.02503 4.5 0.103027C5.063 0.103027 6 1.48603 6 2.72803C6 3.97003 5.332 4.60303 4.5 4.60303ZM10.5 4.60303C10.1022 4.60303 9.72064 4.44499 9.43934 4.16369C9.15804 3.88238 9 3.50085 9 3.10303C9 1.65003 10.5 2.02503 10.5 0.103027C11.063 0.103027 12 1.48603 12 2.72803C12 3.97003 11.332 4.60303 10.5 4.60303ZM16.5 4.60303C16.1022 4.60303 15.7206 4.44499 15.4393 4.16369C15.158 3.88238 15 3.50085 15 3.10303C15 1.65003 16.5 2.02503 16.5 0.103027C17.063 0.103027 18 1.48603 18 2.72803C18 3.97003 17.332 4.60303 16.5 4.60303Z" fill="#54AEFF"/>
</svg>
