<svg width="21" height="24" viewBox="0 0 21 24" fill="none" xmlns="http://www.w3.org/2000/svg">
<g clip-path="url(#clip0_28_571)">
<path d="M8.7632 14.4375C8.75427 14.4643 8.69847 14.4621 8.59579 14.4308C8.49311 14.3996 8.35249 14.3482 8.17392 14.2768L7.90606 14.1562C7.5132 13.9777 7.12481 13.7589 6.74088 13.5C6.67838 13.4554 6.49534 13.3147 6.19177 13.0781C5.8882 12.8415 5.71856 12.7143 5.68284 12.6964C5.08463 13.6161 4.48642 14.4241 3.8882 15.1205C3.16499 15.9688 2.69624 16.4598 2.48195 16.5938C2.44624 16.6116 2.35918 16.6295 2.22079 16.6473C2.0824 16.6652 1.99981 16.6652 1.97302 16.6473C2.02659 16.6116 2.39267 16.2009 3.07124 15.4152C3.25874 15.2009 3.64043 14.6875 4.21633 13.875C4.79222 13.0625 5.14267 12.5357 5.26767 12.2946C5.41945 12.0268 5.64713 11.5871 5.9507 10.9754C6.25427 10.3638 6.41499 10.0179 6.43284 9.9375C6.36142 9.92857 5.87034 10.0759 4.95963 10.3795C4.8882 10.3973 4.76543 10.4308 4.59133 10.4799C4.41722 10.529 4.2632 10.5714 4.12927 10.6071C3.99534 10.6429 3.91945 10.6652 3.90159 10.6741C3.88374 10.692 3.87481 10.7388 3.87481 10.8147C3.87481 10.8906 3.87034 10.933 3.86142 10.942C3.81677 11.0312 3.67838 11.0982 3.44624 11.1429C3.24088 11.2054 3.03106 11.2054 2.81677 11.1429C2.65606 11.1071 2.53106 11.0134 2.44177 10.8616C2.40606 10.808 2.38374 10.7054 2.37481 10.5536C2.42838 10.5357 2.53775 10.5134 2.70293 10.4866C2.86811 10.4598 2.99981 10.433 3.09802 10.4062C3.61588 10.2634 4.08463 10.1205 4.50427 9.97768C5.39713 9.66518 5.85249 9.50893 5.87034 9.50893C5.95963 9.49107 6.15159 9.40402 6.44624 9.24777C6.74088 9.09152 6.93731 8.99554 7.03552 8.95982C7.11588 8.93304 7.21186 8.89732 7.32347 8.85268C7.43508 8.80804 7.49981 8.78348 7.51767 8.77902C7.53552 8.77455 7.56231 8.77679 7.59802 8.78571C7.61588 8.89286 7.61142 9.04018 7.58463 9.22768C7.58463 9.24554 7.52883 9.36607 7.41722 9.58929C7.30561 9.8125 7.18731 10.0513 7.06231 10.3058C6.93731 10.5603 6.86142 10.7098 6.83463 10.7545C6.61142 11.2009 6.26767 11.7857 5.80338 12.5089L6.66052 12.8839C6.76767 12.9375 7.10025 13.0804 7.65829 13.3125C8.21633 13.5446 8.51767 13.6696 8.56231 13.6875C8.59802 13.6964 8.6449 13.8103 8.70293 14.029C8.76097 14.2478 8.78106 14.3839 8.7632 14.4375ZM6.01767 7.92857C6.04445 8.0625 6.02659 8.1875 5.96409 8.30357C5.85695 8.50893 5.63374 8.67857 5.29445 8.8125C5.02659 8.91964 4.75874 8.97321 4.49088 8.97321C4.25874 8.94643 4.03999 8.83036 3.83463 8.625C3.70963 8.49107 3.62927 8.30804 3.59356 8.07589L3.60695 8.03571C3.63374 8.0625 3.72079 8.08482 3.86811 8.10268C4.01543 8.12054 4.13374 8.12054 4.22302 8.10268C4.31231 8.08482 4.57124 8.01339 4.99981 7.88839C5.32124 7.78125 5.56677 7.71875 5.73642 7.70089C5.8882 7.70089 5.98195 7.77679 6.01767 7.92857ZM15.3659 9.65625L16.2096 12.6964L14.348 12.1339L15.3659 9.65625ZM0.526594 20.3705L9.82124 17.2634V3.44196L0.526594 6.5625V20.3705ZM17.1471 16.125L18.5132 16.5402L16.0891 7.74107L14.7498 7.32589L11.857 14.5045L13.223 14.9196L13.8257 13.4464L16.6516 14.317L17.1471 16.125ZM10.4105 3.24107L18.0846 5.70536V0.616071L10.4105 3.24107ZM14.5757 20.9598L16.6918 21.1339L15.9686 23.2768L15.4328 22.3929C14.2721 23.1339 13.04 23.6161 11.7364 23.8393C11.2186 23.9464 10.8123 24 10.5177 24H9.39267C8.68731 24 7.79668 23.8259 6.72079 23.4777C5.6449 23.1295 4.8257 22.75 4.2632 22.3393C4.19177 22.2768 4.15606 22.2054 4.15606 22.125C4.15606 22.0536 4.17838 21.9933 4.22302 21.9442C4.26767 21.8951 4.3257 21.8705 4.39713 21.8705C4.43284 21.8705 4.5132 21.904 4.6382 21.971C4.7632 22.0379 4.89936 22.1116 5.04668 22.192C5.194 22.2723 5.28552 22.3214 5.32124 22.3393C5.97302 22.6696 6.68508 22.9442 7.4574 23.1629C8.22972 23.3817 8.93284 23.4911 9.56677 23.4911C10.415 23.4911 11.1605 23.4263 11.8034 23.2969C12.4462 23.1674 13.1471 22.942 13.9061 22.6205C14.04 22.558 14.1761 22.4888 14.3145 22.4129C14.4529 22.3371 14.6047 22.2522 14.7699 22.1585C14.9351 22.0647 15.0623 21.9911 15.1516 21.9375L14.5757 20.9598ZM20.5757 6.50893V20.9598L10.2096 17.6652C10.0846 17.7188 8.41052 18.2879 5.18731 19.3728C1.96409 20.4576 0.321237 21 0.258737 21C0.142665 21 0.0623082 20.942 0.0176653 20.8259C0.0176653 20.817 0.013201 20.8036 0.00427246 20.7857V6.34821C0.0310582 6.26786 0.0489153 6.22321 0.0578439 6.21429C0.102487 6.16071 0.191772 6.11161 0.325701 6.06696C1.28106 5.74554 1.94624 5.52232 2.32124 5.39732V0.254464L9.79445 2.90625C9.81231 2.90625 10.5288 2.66071 11.944 2.16964C13.3592 1.67857 14.7699 1.1942 16.1761 0.716518C17.5824 0.238839 18.3034 0 18.3391 0C18.5177 0 18.607 0.09375 18.607 0.28125V5.87946L20.5757 6.50893Z" fill="#54AEFF"/>
</g>
<defs>
<clipPath id="clip0_28_571">
<rect width="20.58" height="24" fill="white"/>
</clipPath>
</defs>
</svg>
