<svg width="22" height="22" viewBox="0 0 22 22" fill="none" xmlns="http://www.w3.org/2000/svg">
<path fill-rule="evenodd" clip-rule="evenodd" d="M15.0261 7.07107C15.2702 6.82699 15.2702 6.43126 15.0261 6.18718C14.7821 5.94311 14.3863 5.94311 14.1422 6.18718L13.8108 6.51864L13.5644 6.27229C12.5811 5.28894 11.0027 5.23963 9.95983 6.15968L8.30058 7.62359C7.66796 8.18173 6.89432 8.5556 6.06392 8.70448C5.31362 8.83899 4.9767 9.72411 5.44764 10.3235L6.7727 12.0099L6.29778 12.4849C5.62657 13.1561 5.62657 14.2443 6.29778 14.9155C6.969 15.5867 8.05725 15.5867 8.72846 14.9155L9.20338 14.4406L10.8898 15.7657C11.4892 16.2366 12.3743 15.8997 12.5088 15.1494C12.6577 14.319 13.0316 13.5454 13.5897 12.9127L15.0536 11.2535C15.9737 10.2107 15.9244 8.63222 14.941 7.64887L14.6947 7.40252L15.0261 7.07107ZM12.9015 6.93521C12.2682 6.3019 11.2517 6.27014 10.5801 6.86268L8.92082 8.32659C8.15956 8.99823 7.22862 9.44812 6.22936 9.62726C6.17513 9.63699 6.15078 9.70096 6.18481 9.74429L7.63842 11.5943C8.21731 12.3311 8.88222 12.996 9.61898 13.5749L11.469 15.0285C11.5124 15.0625 11.5763 15.0382 11.586 14.984C11.7652 13.9847 12.2151 13.0538 12.8867 12.2925L14.3506 10.6332C14.9432 9.96164 14.9114 8.94508 14.2781 8.31178L12.9015 6.93521ZM6.9607 14.2526C6.6556 13.9475 6.6556 13.4529 6.9607 13.1478L7.29215 12.8163L8.39701 13.9212L8.06555 14.2526C7.76045 14.5577 7.26579 14.5577 6.9607 14.2526Z" fill="white"/>
</svg>
