<svg width="10" height="10" viewBox="0 0 10 10" fill="none" xmlns="http://www.w3.org/2000/svg">
<path d="M5.36035 1.24843C5.19978 0.971704 4.80015 0.971703 4.63957 1.24843L3.50872 3.19731C3.4294 3.33401 3.29229 3.4273 3.13602 3.4509L1.01672 3.771C0.660768 3.82476 0.53591 4.27418 0.813121 4.50385L2.39191 5.81186C2.53805 5.93294 2.60677 6.12392 2.57127 6.31035L2.15828 8.47916C2.093 8.82201 2.45291 9.08839 2.76172 8.92578L4.75731 7.87502C4.90919 7.79505 5.09073 7.79505 5.24262 7.87502L7.23821 8.92578C7.54702 9.08839 7.90693 8.82201 7.84165 8.47916L7.42866 6.31035C7.39316 6.12392 7.46188 5.93294 7.60802 5.81186L9.18681 4.50385C9.46402 4.27418 9.33916 3.82476 8.98321 3.771L6.86391 3.45091C6.70763 3.4273 6.57053 3.33401 6.49121 3.19731L5.36035 1.24843Z" fill="#E77A3F"/>
</svg>
